<mxfile host="app.diagrams.net" agent="Mozilla/5.0 (Macintosh; Intel Mac OS X 10_15_7) AppleWebKit/537.36 (KHTML, like Gecko) Chrome/133.0.0.0 Safari/537.36" version="26.0.16">
  <diagram name="第 1 页" id="zfJffEkudMMNJTo0xPQi">
    <mxGraphModel dx="265" dy="175" grid="1" gridSize="10" guides="1" tooltips="1" connect="1" arrows="1" fold="1" page="1" pageScale="1" pageWidth="827" pageHeight="1169" math="0" shadow="0">
      <root>
        <mxCell id="0" />
        <mxCell id="1" parent="0" />
        <mxCell id="TtvNfw4dSMdTk0U6D3_O-1" value="" style="rounded=1;whiteSpace=wrap;html=1;dashed=1;fontFamily=Times New Roman;fillColor=none;" vertex="1" parent="1">
          <mxGeometry x="414" y="220" width="258" height="68" as="geometry" />
        </mxCell>
        <mxCell id="TtvNfw4dSMdTk0U6D3_O-2" value="&lt;p class=&quot;p1&quot; style=&quot;margin: 0px; font-variant-numeric: normal; font-variant-east-asian: normal; font-variant-alternates: normal; font-size-adjust: none; font-kerning: auto; font-optical-sizing: auto; font-feature-settings: normal; font-variation-settings: normal; font-variant-position: normal; font-variant-emoji: normal; font-stretch: normal; line-height: normal; color: rgb(14, 14, 14); text-align: start;&quot;&gt;&lt;font style=&quot;font-size: 11px;&quot;&gt;FT&lt;/font&gt;&lt;/p&gt;" style="rounded=0;whiteSpace=wrap;html=1;horizontal=0;fillColor=#95D4EE;strokeColor=#10739e;fontFamily=Times New Roman;" vertex="1" parent="1">
          <mxGeometry x="438.55" y="120.03" width="14" height="55.8" as="geometry" />
        </mxCell>
        <mxCell id="TtvNfw4dSMdTk0U6D3_O-3" style="rounded=0;orthogonalLoop=1;jettySize=auto;html=1;exitX=1;exitY=0.5;exitDx=0;exitDy=0;entryX=0;entryY=0.5;entryDx=0;entryDy=0;strokeColor=default;strokeWidth=0.4;align=center;verticalAlign=middle;fontFamily=Times New Roman;fontSize=11;fontColor=default;labelBackgroundColor=default;endArrow=classicThin;endFill=1;" edge="1" parent="1" source="TtvNfw4dSMdTk0U6D3_O-5" target="TtvNfw4dSMdTk0U6D3_O-29">
          <mxGeometry relative="1" as="geometry" />
        </mxCell>
        <mxCell id="TtvNfw4dSMdTk0U6D3_O-4" style="edgeStyle=orthogonalEdgeStyle;rounded=0;orthogonalLoop=1;jettySize=auto;html=1;exitX=1;exitY=0.5;exitDx=0;exitDy=0;entryX=0;entryY=0.5;entryDx=0;entryDy=0;strokeColor=default;strokeWidth=0.4;align=center;verticalAlign=middle;fontFamily=Times New Roman;fontSize=11;fontColor=default;labelBackgroundColor=default;endArrow=classicThin;endFill=1;" edge="1" parent="1" source="TtvNfw4dSMdTk0U6D3_O-5" target="TtvNfw4dSMdTk0U6D3_O-32">
          <mxGeometry relative="1" as="geometry" />
        </mxCell>
        <mxCell id="TtvNfw4dSMdTk0U6D3_O-5" value="" style="shape=table;startSize=0;container=1;collapsible=0;childLayout=tableLayout;fontSize=16;gradientColor=#808080;gradientDirection=north;fontFamily=Times New Roman;" vertex="1" parent="1">
          <mxGeometry x="478.96" y="136.16999999999996" width="24.18" height="23.99" as="geometry" />
        </mxCell>
        <mxCell id="TtvNfw4dSMdTk0U6D3_O-6" style="shape=tableRow;horizontal=0;startSize=0;swimlaneHead=0;swimlaneBody=0;strokeColor=inherit;top=0;left=0;bottom=0;right=0;collapsible=0;dropTarget=0;fillColor=none;points=[[0,0.5],[1,0.5]];portConstraint=eastwest;fontSize=16;fontFamily=Times New Roman;" vertex="1" parent="TtvNfw4dSMdTk0U6D3_O-5">
          <mxGeometry width="24.18" height="6" as="geometry" />
        </mxCell>
        <mxCell id="TtvNfw4dSMdTk0U6D3_O-7" style="shape=partialRectangle;html=1;whiteSpace=wrap;connectable=0;strokeColor=inherit;overflow=hidden;fillColor=none;top=0;left=0;bottom=0;right=0;pointerEvents=1;fontSize=16;fontFamily=Times New Roman;" vertex="1" parent="TtvNfw4dSMdTk0U6D3_O-6">
          <mxGeometry width="6" height="6" as="geometry">
            <mxRectangle width="6" height="6" as="alternateBounds" />
          </mxGeometry>
        </mxCell>
        <mxCell id="TtvNfw4dSMdTk0U6D3_O-8" style="shape=partialRectangle;html=1;whiteSpace=wrap;connectable=0;strokeColor=inherit;overflow=hidden;fillColor=none;top=0;left=0;bottom=0;right=0;pointerEvents=1;fontSize=16;fontFamily=Times New Roman;" vertex="1" parent="TtvNfw4dSMdTk0U6D3_O-6">
          <mxGeometry x="6" width="6" height="6" as="geometry">
            <mxRectangle width="6" height="6" as="alternateBounds" />
          </mxGeometry>
        </mxCell>
        <mxCell id="TtvNfw4dSMdTk0U6D3_O-9" style="shape=partialRectangle;html=1;whiteSpace=wrap;connectable=0;strokeColor=inherit;overflow=hidden;fillColor=none;top=0;left=0;bottom=0;right=0;pointerEvents=1;fontSize=16;fontFamily=Times New Roman;" vertex="1" parent="TtvNfw4dSMdTk0U6D3_O-6">
          <mxGeometry x="12" width="6" height="6" as="geometry">
            <mxRectangle width="6" height="6" as="alternateBounds" />
          </mxGeometry>
        </mxCell>
        <mxCell id="TtvNfw4dSMdTk0U6D3_O-10" style="shape=partialRectangle;html=1;whiteSpace=wrap;connectable=0;strokeColor=inherit;overflow=hidden;fillColor=none;top=0;left=0;bottom=0;right=0;pointerEvents=1;fontSize=16;fontFamily=Times New Roman;" vertex="1" parent="TtvNfw4dSMdTk0U6D3_O-6">
          <mxGeometry x="18" width="6" height="6" as="geometry">
            <mxRectangle width="6" height="6" as="alternateBounds" />
          </mxGeometry>
        </mxCell>
        <mxCell id="TtvNfw4dSMdTk0U6D3_O-11" value="" style="shape=tableRow;horizontal=0;startSize=0;swimlaneHead=0;swimlaneBody=0;strokeColor=inherit;top=0;left=0;bottom=0;right=0;collapsible=0;dropTarget=0;fillColor=none;points=[[0,0.5],[1,0.5]];portConstraint=eastwest;fontSize=16;fontFamily=Times New Roman;" vertex="1" parent="TtvNfw4dSMdTk0U6D3_O-5">
          <mxGeometry y="6" width="24.18" height="6" as="geometry" />
        </mxCell>
        <mxCell id="TtvNfw4dSMdTk0U6D3_O-12" value="" style="shape=partialRectangle;html=1;whiteSpace=wrap;connectable=0;strokeColor=inherit;overflow=hidden;fillColor=none;top=0;left=0;bottom=0;right=0;pointerEvents=1;fontSize=16;fontFamily=Times New Roman;" vertex="1" parent="TtvNfw4dSMdTk0U6D3_O-11">
          <mxGeometry width="6" height="6" as="geometry">
            <mxRectangle width="6" height="6" as="alternateBounds" />
          </mxGeometry>
        </mxCell>
        <mxCell id="TtvNfw4dSMdTk0U6D3_O-13" value="" style="shape=partialRectangle;html=1;whiteSpace=wrap;connectable=0;strokeColor=inherit;overflow=hidden;fillColor=none;top=0;left=0;bottom=0;right=0;pointerEvents=1;fontSize=16;fontFamily=Times New Roman;" vertex="1" parent="TtvNfw4dSMdTk0U6D3_O-11">
          <mxGeometry x="6" width="6" height="6" as="geometry">
            <mxRectangle width="6" height="6" as="alternateBounds" />
          </mxGeometry>
        </mxCell>
        <mxCell id="TtvNfw4dSMdTk0U6D3_O-14" value="" style="shape=partialRectangle;html=1;whiteSpace=wrap;connectable=0;strokeColor=inherit;overflow=hidden;fillColor=none;top=0;left=0;bottom=0;right=0;pointerEvents=1;fontSize=16;fontFamily=Times New Roman;" vertex="1" parent="TtvNfw4dSMdTk0U6D3_O-11">
          <mxGeometry x="12" width="6" height="6" as="geometry">
            <mxRectangle width="6" height="6" as="alternateBounds" />
          </mxGeometry>
        </mxCell>
        <mxCell id="TtvNfw4dSMdTk0U6D3_O-15" style="shape=partialRectangle;html=1;whiteSpace=wrap;connectable=0;strokeColor=inherit;overflow=hidden;fillColor=none;top=0;left=0;bottom=0;right=0;pointerEvents=1;fontSize=16;fontFamily=Times New Roman;" vertex="1" parent="TtvNfw4dSMdTk0U6D3_O-11">
          <mxGeometry x="18" width="6" height="6" as="geometry">
            <mxRectangle width="6" height="6" as="alternateBounds" />
          </mxGeometry>
        </mxCell>
        <mxCell id="TtvNfw4dSMdTk0U6D3_O-16" value="" style="shape=tableRow;horizontal=0;startSize=0;swimlaneHead=0;swimlaneBody=0;strokeColor=inherit;top=0;left=0;bottom=0;right=0;collapsible=0;dropTarget=0;fillColor=none;points=[[0,0.5],[1,0.5]];portConstraint=eastwest;fontSize=16;fontFamily=Times New Roman;" vertex="1" parent="TtvNfw4dSMdTk0U6D3_O-5">
          <mxGeometry y="12" width="24.18" height="6" as="geometry" />
        </mxCell>
        <mxCell id="TtvNfw4dSMdTk0U6D3_O-17" value="" style="shape=partialRectangle;html=1;whiteSpace=wrap;connectable=0;strokeColor=inherit;overflow=hidden;fillColor=none;top=0;left=0;bottom=0;right=0;pointerEvents=1;fontSize=16;fontFamily=Times New Roman;" vertex="1" parent="TtvNfw4dSMdTk0U6D3_O-16">
          <mxGeometry width="6" height="6" as="geometry">
            <mxRectangle width="6" height="6" as="alternateBounds" />
          </mxGeometry>
        </mxCell>
        <mxCell id="TtvNfw4dSMdTk0U6D3_O-18" value="" style="shape=partialRectangle;html=1;whiteSpace=wrap;connectable=0;strokeColor=inherit;overflow=hidden;fillColor=none;top=0;left=0;bottom=0;right=0;pointerEvents=1;fontSize=16;fontFamily=Times New Roman;" vertex="1" parent="TtvNfw4dSMdTk0U6D3_O-16">
          <mxGeometry x="6" width="6" height="6" as="geometry">
            <mxRectangle width="6" height="6" as="alternateBounds" />
          </mxGeometry>
        </mxCell>
        <mxCell id="TtvNfw4dSMdTk0U6D3_O-19" value="&lt;span style=&quot;color: rgba(0, 0, 0, 0); font-size: 0px; text-align: start; text-wrap-mode: nowrap;&quot;&gt;%3CmxGraphModel%3E%3Croot%3E%3CmxCell%20id%3D%220%22%2F%3E%3CmxCell%20id%3D%221%22%20parent%3D%220%22%2F%3E%3CmxCell%20id%3D%222%22%20value%3D%22%22%20style%3D%22shape%3Dtable%3BstartSize%3D0%3Bcontainer%3D1%3Bcollapsible%3D0%3BchildLayout%3DtableLayout%3BfontSize%3D16%3BgradientColor%3D%23808080%3BgradientDirection%3Dnorth%3B%22%20vertex%3D%221%22%20parent%3D%221%22%3E%3CmxGeometry%20x%3D%22458%22%20y%3D%22158%22%20width%3D%2230%22%20height%3D%2228%22%20as%3D%22geometry%22%2F%3E%3C%2FmxCell%3E%3CmxCell%20id%3D%223%22%20style%3D%22shape%3DtableRow%3Bhorizontal%3D0%3BstartSize%3D0%3BswimlaneHead%3D0%3BswimlaneBody%3D0%3BstrokeColor%3Dinherit%3Btop%3D0%3Bleft%3D0%3Bbottom%3D0%3Bright%3D0%3Bcollapsible%3D0%3BdropTarget%3D0%3BfillColor%3Dnone%3Bpoints%3D%5B%5B0%2C0.5%5D%2C%5B1%2C0.5%5D%5D%3BportConstraint%3Deastwest%3BfontSize%3D16%3B%22%20vertex%3D%221%22%20parent%3D%222%22%3E%3CmxGeometry%20width%3D%2230%22%20height%3D%227%22%20as%3D%22geometry%22%2F%3E%3C%2FmxCell%3E%3CmxCell%20id%3D%224%22%20style%3D%22shape%3DpartialRectangle%3Bhtml%3D1%3BwhiteSpace%3Dwrap%3Bconnectable%3D0%3BstrokeColor%3Dinherit%3Boverflow%3Dhidden%3BfillColor%3Dnone%3Btop%3D0%3Bleft%3D0%3Bbottom%3D0%3Bright%3D0%3BpointerEvents%3D1%3BfontSize%3D16%3B%22%20vertex%3D%221%22%20parent%3D%223%22%3E%3CmxGeometry%20width%3D%228%22%20height%3D%227%22%20as%3D%22geometry%22%3E%3CmxRectangle%20width%3D%228%22%20height%3D%227%22%20as%3D%22alternateBounds%22%2F%3E%3C%2FmxGeometry%3E%3C%2FmxCell%3E%3CmxCell%20id%3D%225%22%20style%3D%22shape%3DpartialRectangle%3Bhtml%3D1%3BwhiteSpace%3Dwrap%3Bconnectable%3D0%3BstrokeColor%3Dinherit%3Boverflow%3Dhidden%3BfillColor%3Dnone%3Btop%3D0%3Bleft%3D0%3Bbottom%3D0%3Bright%3D0%3BpointerEvents%3D1%3BfontSize%3D16%3B%22%20vertex%3D%221%22%20parent%3D%223%22%3E%3CmxGeometry%20x%3D%228%22%20width%3D%227%22%20height%3D%227%22%20as%3D%22geometry%22%3E%3CmxRectangle%20width%3D%227%22%20height%3D%227%22%20as%3D%22alternateBounds%22%2F%3E%3C%2FmxGeometry%3E%3C%2FmxCell%3E%3CmxCell%20id%3D%226%22%20style%3D%22shape%3DpartialRectangle%3Bhtml%3D1%3BwhiteSpace%3Dwrap%3Bconnectable%3D0%3BstrokeColor%3Dinherit%3Boverflow%3Dhidden%3BfillColor%3Dnone%3Btop%3D0%3Bleft%3D0%3Bbottom%3D0%3Bright%3D0%3BpointerEvents%3D1%3BfontSize%3D16%3B%22%20vertex%3D%221%22%20parent%3D%223%22%3E%3CmxGeometry%20x%3D%2215%22%20width%3D%228%22%20height%3D%227%22%20as%3D%22geometry%22%3E%3CmxRectangle%20width%3D%228%22%20height%3D%227%22%20as%3D%22alternateBounds%22%2F%3E%3C%2FmxGeometry%3E%3C%2FmxCell%3E%3CmxCell%20id%3D%227%22%20style%3D%22shape%3DpartialRectangle%3Bhtml%3D1%3BwhiteSpace%3Dwrap%3Bconnectable%3D0%3BstrokeColor%3Dinherit%3Boverflow%3Dhidden%3BfillColor%3Dnone%3Btop%3D0%3Bleft%3D0%3Bbottom%3D0%3Bright%3D0%3BpointerEvents%3D1%3BfontSize%3D16%3B%22%20vertex%3D%221%22%20parent%3D%223%22%3E%3CmxGeometry%20x%3D%2223%22%20width%3D%227%22%20height%3D%227%22%20as%3D%22geometry%22%3E%3CmxRectangle%20width%3D%227%22%20height%3D%227%22%20as%3D%22alternateBounds%22%2F%3E%3C%2FmxGeometry%3E%3C%2FmxCell%3E%3CmxCell%20id%3D%228%22%20value%3D%22%22%20style%3D%22shape%3DtableRow%3Bhorizontal%3D0%3BstartSize%3D0%3BswimlaneHead%3D0%3BswimlaneBody%3D0%3BstrokeColor%3Dinherit%3Btop%3D0%3Bleft%3D0%3Bbottom%3D0%3Bright%3D0%3Bcollapsible%3D0%3BdropTarget%3D0%3BfillColor%3Dnone%3Bpoints%3D%5B%5B0%2C0.5%5D%2C%5B1%2C0.5%5D%5D%3BportConstraint%3Deastwest%3BfontSize%3D16%3B%22%20vertex%3D%221%22%20parent%3D%222%22%3E%3CmxGeometry%20y%3D%227%22%20width%3D%2230%22%20height%3D%227%22%20as%3D%22geometry%22%2F%3E%3C%2FmxCell%3E%3CmxCell%20id%3D%229%22%20value%3D%22%22%20style%3D%22shape%3DpartialRectangle%3Bhtml%3D1%3BwhiteSpace%3Dwrap%3Bconnectable%3D0%3BstrokeColor%3Dinherit%3Boverflow%3Dhidden%3BfillColor%3Dnone%3Btop%3D0%3Bleft%3D0%3Bbottom%3D0%3Bright%3D0%3BpointerEvents%3D1%3BfontSize%3D16%3B%22%20vertex%3D%221%22%20parent%3D%228%22%3E%3CmxGeometry%20width%3D%228%22%20height%3D%227%22%20as%3D%22geometry%22%3E%3CmxRectangle%20width%3D%228%22%20height%3D%227%22%20as%3D%22alternateBounds%22%2F%3E%3C%2FmxGeometry%3E%3C%2FmxCell%3E%3CmxCell%20id%3D%2210%22%20value%3D%22%22%20style%3D%22shape%3DpartialRectangle%3Bhtml%3D1%3BwhiteSpace%3Dwrap%3Bconnectable%3D0%3BstrokeColor%3Dinherit%3Boverflow%3Dhidden%3BfillColor%3Dnone%3Btop%3D0%3Bleft%3D0%3Bbottom%3D0%3Bright%3D0%3BpointerEvents%3D1%3BfontSize%3D16%3B%22%20vertex%3D%221%22%20parent%3D%228%22%3E%3CmxGeometry%20x%3D%228%22%20width%3D%227%22%20height%3D%227%22%20as%3D%22geometry%22%3E%3CmxRectangle%20width%3D%227%22%20height%3D%227%22%20as%3D%22alternateBounds%22%2F%3E%3C%2FmxGeometry%3E%3C%2FmxCell%3E%3CmxCell%20id%3D%2211%22%20value%3D%22%22%20style%3D%22shape%3DpartialRectangle%3Bhtml%3D1%3BwhiteSpace%3Dwrap%3Bconnectable%3D0%3BstrokeColor%3Dinherit%3Boverflow%3Dhidden%3BfillColor%3Dnone%3Btop%3D0%3Bleft%3D0%3Bbottom%3D0%3Bright%3D0%3BpointerEvents%3D1%3BfontSize%3D16%3B%22%20vertex%3D%221%22%20parent%3D%228%22%3E%3CmxGeometry%20x%3D%2215%22%20width%3D%228%22%20height%3D%227%22%20as%3D%22geometry%22%3E%3CmxRectangle%20width%3D%228%22%20height%3D%227%22%20as%3D%22alternateBounds%22%2F%3E%3C%2FmxGeometry%3E%3C%2FmxCell%3E%3CmxCell%20id%3D%2212%22%20style%3D%22shape%3DpartialRectangle%3Bhtml%3D1%3BwhiteSpace%3Dwrap%3Bconnectable%3D0%3BstrokeColor%3Dinherit%3Boverflow%3Dhidden%3BfillColor%3Dnone%3Btop%3D0%3Bleft%3D0%3Bbottom%3D0%3Bright%3D0%3BpointerEvents%3D1%3BfontSize%3D16%3B%22%20vertex%3D%221%22%20parent%3D%228%22%3E%3CmxGeometry%20x%3D%2223%22%20width%3D%227%22%20height%3D%227%22%20as%3D%22geometry%22%3E%3CmxRectangle%20width%3D%227%22%20height%3D%227%22%20as%3D%22alternateBounds%22%2F%3E%3C%2FmxGeometry%3E%3C%2FmxCell%3E%3CmxCell%20id%3D%2213%22%20value%3D%22%22%20style%3D%22shape%3DtableRow%3Bhorizontal%3D0%3BstartSize%3D0%3BswimlaneHead%3D0%3BswimlaneBody%3D0%3BstrokeColor%3Dinherit%3Btop%3D0%3Bleft%3D0%3Bbottom%3D0%3Bright%3D0%3Bcollapsible%3D0%3BdropTarget%3D0%3BfillColor%3Dnone%3Bpoints%3D%5B%5B0%2C0.5%5D%2C%5B1%2C0.5%5D%5D%3BportConstraint%3Deastwest%3BfontSize%3D16%3B%22%20vertex%3D%221%22%20parent%3D%222%22%3E%3CmxGeometry%20y%3D%2214%22%20width%3D%2230%22%20height%3D%227%22%20as%3D%22geometry%22%2F%3E%3C%2FmxCell%3E%3CmxCell%20id%3D%2214%22%20value%3D%22%22%20style%3D%22shape%3DpartialRectangle%3Bhtml%3D1%3BwhiteSpace%3Dwrap%3Bconnectable%3D0%3BstrokeColor%3Dinherit%3Boverflow%3Dhidden%3BfillColor%3Dnone%3Btop%3D0%3Bleft%3D0%3Bbottom%3D0%3Bright%3D0%3BpointerEvents%3D1%3BfontSize%3D16%3B%22%20vertex%3D%221%22%20parent%3D%2213%22%3E%3CmxGeometry%20width%3D%228%22%20height%3D%227%22%20as%3D%22geometry%22%3E%3CmxRectangle%20width%3D%228%22%20height%3D%227%22%20as%3D%22alternateBounds%22%2F%3E%3C%2FmxGeometry%3E%3C%2FmxCell%3E%3CmxCell%20id%3D%2215%22%20value%3D%22%22%20style%3D%22shape%3DpartialRectangle%3Bhtml%3D1%3BwhiteSpace%3Dwrap%3Bconnectable%3D0%3BstrokeColor%3Dinherit%3Boverflow%3Dhidden%3BfillColor%3Dnone%3Btop%3D0%3Bleft%3D0%3Bbottom%3D0%3Bright%3D0%3BpointerEvents%3D1%3BfontSize%3D16%3B%22%20vertex%3D%221%22%20parent%3D%2213%22%3E%3CmxGeometry%20x%3D%228%22%20width%3D%227%22%20height%3D%227%22%20as%3D%22geometry%22%3E%3CmxRectangle%20width%3D%227%22%20height%3D%227%22%20as%3D%22alternateBounds%22%2F%3E%3C%2FmxGeometry%3E%3C%2FmxCell%3E%3CmxCell%20id%3D%2216%22%20value%3D%22%22%20style%3D%22shape%3DpartialRectangle%3Bhtml%3D1%3BwhiteSpace%3Dwrap%3Bconnectable%3D0%3BstrokeColor%3Dinherit%3Boverflow%3Dhidden%3BfillColor%3Dnone%3Btop%3D0%3Bleft%3D0%3Bbottom%3D0%3Bright%3D0%3BpointerEvents%3D1%3BfontSize%3D16%3B%22%20vertex%3D%221%22%20parent%3D%2213%22%3E%3CmxGeometry%20x%3D%2215%22%20width%3D%228%22%20height%3D%227%22%20as%3D%22geometry%22%3E%3CmxRectangle%20width%3D%228%22%20height%3D%227%22%20as%3D%22alternateBounds%22%2F%3E%3C%2FmxGeometry%3E%3C%2FmxCell%3E%3CmxCell%20id%3D%2217%22%20style%3D%22shape%3DpartialRectangle%3Bhtml%3D1%3BwhiteSpace%3Dwrap%3Bconnectable%3D0%3BstrokeColor%3Dinherit%3Boverflow%3Dhidden%3BfillColor%3Dnone%3Btop%3D0%3Bleft%3D0%3Bbottom%3D0%3Bright%3D0%3BpointerEvents%3D1%3BfontSize%3D16%3B%22%20vertex%3D%221%22%20parent%3D%2213%22%3E%3CmxGeometry%20x%3D%2223%22%20width%3D%227%22%20height%3D%227%22%20as%3D%22geometry%22%3E%3CmxRectangle%20width%3D%227%22%20height%3D%227%22%20as%3D%22alternateBounds%22%2F%3E%3C%2FmxGeometry%3E%3C%2FmxCell%3E%3CmxCell%20id%3D%2218%22%20value%3D%22%22%20style%3D%22shape%3DtableRow%3Bhorizontal%3D0%3BstartSize%3D0%3BswimlaneHead%3D0%3BswimlaneBody%3D0%3BstrokeColor%3Dinherit%3Btop%3D0%3Bleft%3D0%3Bbottom%3D0%3Bright%3D0%3Bcollapsible%3D0%3BdropTarget%3D0%3BfillColor%3Dnone%3Bpoints%3D%5B%5B0%2C0.5%5D%2C%5B1%2C0.5%5D%5D%3BportConstraint%3Deastwest%3BfontSize%3D16%3B%22%20vertex%3D%221%22%20parent%3D%222%22%3E%3CmxGeometry%20y%3D%2221%22%20width%3D%2230%22%20height%3D%227%22%20as%3D%22geometry%22%2F%3E%3C%2FmxCell%3E%3CmxCell%20id%3D%2219%22%20value%3D%22%22%20style%3D%22shape%3DpartialRectangle%3Bhtml%3D1%3BwhiteSpace%3Dwrap%3Bconnectable%3D0%3BstrokeColor%3Dinherit%3Boverflow%3Dhidden%3BfillColor%3Dnone%3Btop%3D0%3Bleft%3D0%3Bbottom%3D0%3Bright%3D0%3BpointerEvents%3D1%3BfontSize%3D16%3B%22%20vertex%3D%221%22%20parent%3D%2218%22%3E%3CmxGeometry%20width%3D%228%22%20height%3D%227%22%20as%3D%22geometry%22%3E%3CmxRectangle%20width%3D%228%22%20height%3D%227%22%20as%3D%22alternateBounds%22%2F%3E%3C%2FmxGeometry%3E%3C%2FmxCell%3E%3CmxCell%20id%3D%2220%22%20value%3D%22%22%20style%3D%22shape%3DpartialRectangle%3Bhtml%3D1%3BwhiteSpace%3Dwrap%3Bconnectable%3D0%3BstrokeColor%3Dinherit%3Boverflow%3Dhidden%3BfillColor%3Dnone%3Btop%3D0%3Bleft%3D0%3Bbottom%3D0%3Bright%3D0%3BpointerEvents%3D1%3BfontSize%3D16%3B%22%20vertex%3D%221%22%20parent%3D%2218%22%3E%3CmxGeometry%20x%3D%228%22%20width%3D%227%22%20height%3D%227%22%20as%3D%22geometry%22%3E%3CmxRectangle%20width%3D%227%22%20height%3D%227%22%20as%3D%22alternateBounds%22%2F%3E%3C%2FmxGeometry%3E%3C%2FmxCell%3E%3CmxCell%20id%3D%2221%22%20value%3D%22%22%20style%3D%22shape%3DpartialRectangle%3Bhtml%3D1%3BwhiteSpace%3Dwrap%3Bconnectable%3D0%3BstrokeColor%3Dinherit%3Boverflow%3Dhidden%3BfillColor%3Dnone%3Btop%3D0%3Bleft%3D0%3Bbottom%3D0%3Bright%3D0%3BpointerEvents%3D1%3BfontSize%3D16%3B%22%20vertex%3D%221%22%20parent%3D%2218%22%3E%3CmxGeometry%20x%3D%2215%22%20width%3D%228%22%20height%3D%227%22%20as%3D%22geometry%22%3E%3CmxRectangle%20width%3D%228%22%20height%3D%227%22%20as%3D%22alternateBounds%22%2F%3E%3C%2FmxGeometry%3E%3C%2FmxCell%3E%3CmxCell%20id%3D%2222%22%20style%3D%22shape%3DpartialRectangle%3Bhtml%3D1%3BwhiteSpace%3Dwrap%3Bconnectable%3D0%3BstrokeColor%3Dinherit%3Boverflow%3Dhidden%3BfillColor%3Dnone%3Btop%3D0%3Bleft%3D0%3Bbottom%3D0%3Bright%3D0%3BpointerEvents%3D1%3BfontSize%3D16%3B%22%20vertex%3D%221%22%20parent%3D%2218%22%3E%3CmxGeometry%20x%3D%2223%22%20width%3D%227%22%20height%3D%227%22%20as%3D%22geometry%22%3E%3CmxRectangle%20width%3D%227%22%20height%3D%227%22%20as%3D%22alternateBounds%22%2F%3E%3C%2FmxGeometry%3E%3C%2FmxCell%3E%3C%2Froot%3E%3C%2FmxGraphModel%3E&lt;/span&gt;" style="shape=partialRectangle;html=1;whiteSpace=wrap;connectable=0;strokeColor=inherit;overflow=hidden;fillColor=none;top=0;left=0;bottom=0;right=0;pointerEvents=1;fontSize=16;fontFamily=Times New Roman;" vertex="1" parent="TtvNfw4dSMdTk0U6D3_O-16">
          <mxGeometry x="12" width="6" height="6" as="geometry">
            <mxRectangle width="6" height="6" as="alternateBounds" />
          </mxGeometry>
        </mxCell>
        <mxCell id="TtvNfw4dSMdTk0U6D3_O-20" style="shape=partialRectangle;html=1;whiteSpace=wrap;connectable=0;strokeColor=inherit;overflow=hidden;fillColor=none;top=0;left=0;bottom=0;right=0;pointerEvents=1;fontSize=16;fontFamily=Times New Roman;" vertex="1" parent="TtvNfw4dSMdTk0U6D3_O-16">
          <mxGeometry x="18" width="6" height="6" as="geometry">
            <mxRectangle width="6" height="6" as="alternateBounds" />
          </mxGeometry>
        </mxCell>
        <mxCell id="TtvNfw4dSMdTk0U6D3_O-21" value="" style="shape=tableRow;horizontal=0;startSize=0;swimlaneHead=0;swimlaneBody=0;strokeColor=inherit;top=0;left=0;bottom=0;right=0;collapsible=0;dropTarget=0;fillColor=none;points=[[0,0.5],[1,0.5]];portConstraint=eastwest;fontSize=16;fontFamily=Times New Roman;" vertex="1" parent="TtvNfw4dSMdTk0U6D3_O-5">
          <mxGeometry y="18" width="24.18" height="6" as="geometry" />
        </mxCell>
        <mxCell id="TtvNfw4dSMdTk0U6D3_O-22" value="" style="shape=partialRectangle;html=1;whiteSpace=wrap;connectable=0;strokeColor=inherit;overflow=hidden;fillColor=none;top=0;left=0;bottom=0;right=0;pointerEvents=1;fontSize=16;fontFamily=Times New Roman;" vertex="1" parent="TtvNfw4dSMdTk0U6D3_O-21">
          <mxGeometry width="6" height="6" as="geometry">
            <mxRectangle width="6" height="6" as="alternateBounds" />
          </mxGeometry>
        </mxCell>
        <mxCell id="TtvNfw4dSMdTk0U6D3_O-23" value="" style="shape=partialRectangle;html=1;whiteSpace=wrap;connectable=0;strokeColor=inherit;overflow=hidden;fillColor=none;top=0;left=0;bottom=0;right=0;pointerEvents=1;fontSize=16;fontFamily=Times New Roman;" vertex="1" parent="TtvNfw4dSMdTk0U6D3_O-21">
          <mxGeometry x="6" width="6" height="6" as="geometry">
            <mxRectangle width="6" height="6" as="alternateBounds" />
          </mxGeometry>
        </mxCell>
        <mxCell id="TtvNfw4dSMdTk0U6D3_O-24" value="" style="shape=partialRectangle;html=1;whiteSpace=wrap;connectable=0;strokeColor=inherit;overflow=hidden;fillColor=none;top=0;left=0;bottom=0;right=0;pointerEvents=1;fontSize=16;fontFamily=Times New Roman;" vertex="1" parent="TtvNfw4dSMdTk0U6D3_O-21">
          <mxGeometry x="12" width="6" height="6" as="geometry">
            <mxRectangle width="6" height="6" as="alternateBounds" />
          </mxGeometry>
        </mxCell>
        <mxCell id="TtvNfw4dSMdTk0U6D3_O-25" style="shape=partialRectangle;html=1;whiteSpace=wrap;connectable=0;strokeColor=inherit;overflow=hidden;fillColor=none;top=0;left=0;bottom=0;right=0;pointerEvents=1;fontSize=16;fontFamily=Times New Roman;" vertex="1" parent="TtvNfw4dSMdTk0U6D3_O-21">
          <mxGeometry x="18" width="6" height="6" as="geometry">
            <mxRectangle width="6" height="6" as="alternateBounds" />
          </mxGeometry>
        </mxCell>
        <mxCell id="TtvNfw4dSMdTk0U6D3_O-26" value="" style="endArrow=classicThin;html=1;rounded=0;exitX=1;exitY=0.5;exitDx=0;exitDy=0;entryX=0.016;entryY=0.03;entryDx=0;entryDy=0;entryPerimeter=0;strokeColor=default;strokeWidth=0.4;align=center;verticalAlign=middle;fontFamily=Times New Roman;fontSize=11;fontColor=default;labelBackgroundColor=default;endFill=1;" edge="1" parent="1" source="TtvNfw4dSMdTk0U6D3_O-2" target="TtvNfw4dSMdTk0U6D3_O-16">
          <mxGeometry width="50" height="50" relative="1" as="geometry">
            <mxPoint x="419.38053325344515" y="213.01236568072363" as="sourcePoint" />
            <mxPoint x="473.90420011983224" y="153.56933463092673" as="targetPoint" />
          </mxGeometry>
        </mxCell>
        <mxCell id="TtvNfw4dSMdTk0U6D3_O-27" style="rounded=0;orthogonalLoop=1;jettySize=auto;html=1;exitX=1;exitY=0.5;exitDx=0;exitDy=0;entryX=0;entryY=0.5;entryDx=0;entryDy=0;strokeWidth=0.5;endArrow=classicThin;endFill=1;fontFamily=Times New Roman;" edge="1" parent="1" source="TtvNfw4dSMdTk0U6D3_O-29" target="TtvNfw4dSMdTk0U6D3_O-37">
          <mxGeometry relative="1" as="geometry" />
        </mxCell>
        <mxCell id="TtvNfw4dSMdTk0U6D3_O-28" value="a&lt;sub&gt;1&lt;/sub&gt;" style="edgeLabel;html=1;align=center;verticalAlign=middle;resizable=0;points=[];fontFamily=Times New Roman;fontSize=10;labelBackgroundColor=none;" vertex="1" connectable="0" parent="TtvNfw4dSMdTk0U6D3_O-27">
          <mxGeometry x="-0.2882" y="1" relative="1" as="geometry">
            <mxPoint x="3" y="-5" as="offset" />
          </mxGeometry>
        </mxCell>
        <mxCell id="TtvNfw4dSMdTk0U6D3_O-29" value="" style="whiteSpace=wrap;html=1;aspect=fixed;fillColor=#0050ef;strokeColor=#001DBC;fontColor=#ffffff;gradientColor=light-dark(#c3c5ee, #ededed);fontFamily=Times New Roman;" vertex="1" parent="1">
          <mxGeometry x="528.4278669862193" y="120.31" width="15.863096262555786" height="15.863096262555786" as="geometry" />
        </mxCell>
        <mxCell id="TtvNfw4dSMdTk0U6D3_O-30" style="edgeStyle=orthogonalEdgeStyle;rounded=0;orthogonalLoop=1;jettySize=auto;html=1;exitX=1;exitY=0.5;exitDx=0;exitDy=0;entryX=0;entryY=0.5;entryDx=0;entryDy=0;endArrow=classicThin;endFill=1;strokeWidth=0.5;fontFamily=Times New Roman;" edge="1" parent="1" source="TtvNfw4dSMdTk0U6D3_O-32" target="TtvNfw4dSMdTk0U6D3_O-37">
          <mxGeometry relative="1" as="geometry">
            <mxPoint x="568.0814428890463" y="153.67787333643457" as="targetPoint" />
          </mxGeometry>
        </mxCell>
        <mxCell id="TtvNfw4dSMdTk0U6D3_O-31" value="a&lt;sub&gt;2&lt;/sub&gt;" style="edgeLabel;html=1;align=center;verticalAlign=middle;resizable=0;points=[];fontFamily=Times New Roman;fontSize=10;labelBackgroundColor=none;" vertex="1" connectable="0" parent="TtvNfw4dSMdTk0U6D3_O-30">
          <mxGeometry x="-0.2864" relative="1" as="geometry">
            <mxPoint y="-6" as="offset" />
          </mxGeometry>
        </mxCell>
        <mxCell id="TtvNfw4dSMdTk0U6D3_O-32" value="" style="whiteSpace=wrap;html=1;aspect=fixed;fontStyle=1;fillColor=#6a00ff;strokeColor=#3700CC;fontColor=#ffffff;gradientColor=light-dark(#aea5ee, #ededed);fontFamily=Times New Roman;" vertex="1" parent="1">
          <mxGeometry x="528.4278669862193" y="140.2332881961637" width="15.863096262555786" height="15.863096262555786" as="geometry" />
        </mxCell>
        <mxCell id="TtvNfw4dSMdTk0U6D3_O-33" style="rounded=0;orthogonalLoop=1;jettySize=auto;html=1;entryX=0;entryY=0.5;entryDx=0;entryDy=0;endArrow=classicThin;endFill=1;strokeWidth=0.5;exitX=1;exitY=0.5;exitDx=0;exitDy=0;fontFamily=Times New Roman;" edge="1" parent="1" source="TtvNfw4dSMdTk0U6D3_O-35" target="TtvNfw4dSMdTk0U6D3_O-37">
          <mxGeometry relative="1" as="geometry" />
        </mxCell>
        <mxCell id="TtvNfw4dSMdTk0U6D3_O-34" value="a&lt;sub&gt;3&lt;/sub&gt;" style="edgeLabel;html=1;align=center;verticalAlign=middle;resizable=0;points=[];fontFamily=Times New Roman;fontSize=10;labelBackgroundColor=none;" vertex="1" connectable="0" parent="TtvNfw4dSMdTk0U6D3_O-33">
          <mxGeometry x="-0.1604" y="1" relative="1" as="geometry">
            <mxPoint x="2" y="3" as="offset" />
          </mxGeometry>
        </mxCell>
        <mxCell id="TtvNfw4dSMdTk0U6D3_O-35" value="" style="whiteSpace=wrap;html=1;aspect=fixed;fillColor=#dae8fc;strokeColor=#6c8ebf;gradientColor=#7ea6e0;fontFamily=Times New Roman;" vertex="1" parent="1">
          <mxGeometry x="528.4278669862193" y="161.1969888066742" width="15.863096262555786" height="15.863096262555786" as="geometry" />
        </mxCell>
        <mxCell id="TtvNfw4dSMdTk0U6D3_O-36" style="rounded=0;orthogonalLoop=1;jettySize=auto;html=1;entryX=0;entryY=0.5;entryDx=0;entryDy=0;exitX=1.031;exitY=0.036;exitDx=0;exitDy=0;exitPerimeter=0;strokeColor=default;strokeWidth=0.4;align=center;verticalAlign=middle;fontFamily=Times New Roman;fontSize=11;fontColor=default;labelBackgroundColor=default;endArrow=classicThin;endFill=1;" edge="1" parent="1" source="TtvNfw4dSMdTk0U6D3_O-16" target="TtvNfw4dSMdTk0U6D3_O-35">
          <mxGeometry relative="1" as="geometry" />
        </mxCell>
        <mxCell id="TtvNfw4dSMdTk0U6D3_O-37" value="" style="whiteSpace=wrap;html=1;aspect=fixed;fontStyle=1;fillColor=#e51400;strokeColor=#B20000;fontColor=#ffffff;gradientColor=light-dark(#c98d8d, #ededed);fontFamily=Times New Roman;" vertex="1" parent="1">
          <mxGeometry x="572.456800479329" y="138.0956690098484" width="20.13063983468733" height="20.13063983468733" as="geometry" />
        </mxCell>
        <mxCell id="TtvNfw4dSMdTk0U6D3_O-38" value="&lt;p class=&quot;p1&quot; style=&quot;margin: 0px; font-variant-numeric: normal; font-variant-east-asian: normal; font-variant-alternates: normal; font-size-adjust: none; font-kerning: auto; font-optical-sizing: auto; font-feature-settings: normal; font-variation-settings: normal; font-variant-position: normal; font-variant-emoji: normal; font-stretch: normal; line-height: normal; color: rgb(14, 14, 14); text-align: start;&quot;&gt;&lt;font style=&quot;font-size: 11px;&quot;&gt;IFT&lt;/font&gt;&lt;/p&gt;" style="rounded=0;whiteSpace=wrap;html=1;horizontal=0;fillColor=#C8EBF6;strokeColor=#0e8088;fontFamily=Times New Roman;" vertex="1" parent="1">
          <mxGeometry x="608.2450187918732" y="124.2003704979441" width="14" height="47.45854898330564" as="geometry" />
        </mxCell>
        <mxCell id="TtvNfw4dSMdTk0U6D3_O-39" style="edgeStyle=orthogonalEdgeStyle;rounded=0;orthogonalLoop=1;jettySize=auto;html=1;exitX=1;exitY=0.5;exitDx=0;exitDy=0;entryX=0;entryY=0.5;entryDx=0;entryDy=0;strokeColor=default;strokeWidth=0.4;align=center;verticalAlign=middle;fontFamily=Times New Roman;fontSize=11;fontColor=default;labelBackgroundColor=default;endArrow=classicThin;endFill=1;" edge="1" parent="1" source="TtvNfw4dSMdTk0U6D3_O-37" target="TtvNfw4dSMdTk0U6D3_O-38">
          <mxGeometry relative="1" as="geometry">
            <mxPoint x="514.5491154202299" y="163.1569202841198" as="sourcePoint" />
            <mxPoint x="538.3412609619261" y="163.1569202841198" as="targetPoint" />
          </mxGeometry>
        </mxCell>
        <mxCell id="TtvNfw4dSMdTk0U6D3_O-40" value="&lt;div style=&quot;line-height: 70%;&quot;&gt;&lt;font style=&quot;font-size: 8px; line-height: 70%;&quot;&gt;High-Frequency&lt;/font&gt;&lt;div&gt;&lt;font style=&quot;font-size: 8px; line-height: 70%;&quot;&gt;Mask&lt;/font&gt;&lt;/div&gt;&lt;/div&gt;" style="text;html=1;align=center;verticalAlign=middle;whiteSpace=wrap;rounded=0;fontFamily=Times New Roman;fontStyle=1" vertex="1" parent="1">
          <mxGeometry x="452.55" y="110.22999999999999" width="77" height="30" as="geometry" />
        </mxCell>
        <mxCell id="TtvNfw4dSMdTk0U6D3_O-41" value="" style="endArrow=classicThin;html=1;rounded=0;entryX=0;entryY=0.75;entryDx=0;entryDy=0;endFill=1;strokeWidth=0.8;" edge="1" parent="1">
          <mxGeometry width="50" height="50" relative="1" as="geometry">
            <mxPoint x="410" y="163" as="sourcePoint" />
            <mxPoint x="438.54999999999995" y="163" as="targetPoint" />
          </mxGeometry>
        </mxCell>
        <mxCell id="TtvNfw4dSMdTk0U6D3_O-42" value="" style="endArrow=classicThin;html=1;rounded=0;entryX=0;entryY=0.5;entryDx=0;entryDy=0;endFill=1;strokeWidth=0.8;" edge="1" parent="1">
          <mxGeometry width="50" height="50" relative="1" as="geometry">
            <mxPoint x="410" y="147.79" as="sourcePoint" />
            <mxPoint x="438.54999999999995" y="147.79" as="targetPoint" />
          </mxGeometry>
        </mxCell>
        <mxCell id="TtvNfw4dSMdTk0U6D3_O-43" value="" style="endArrow=classicThin;html=1;rounded=0;entryX=0;entryY=0.25;entryDx=0;entryDy=0;endFill=1;strokeWidth=0.8;" edge="1" parent="1">
          <mxGeometry width="50" height="50" relative="1" as="geometry">
            <mxPoint x="410" y="133" as="sourcePoint" />
            <mxPoint x="438.54999999999995" y="133" as="targetPoint" />
          </mxGeometry>
        </mxCell>
      </root>
    </mxGraphModel>
  </diagram>
</mxfile>
